# xmcd
#
# Track frame offsets: 
#        150
#        22217
#        40437
#        70405
#        93491
#        123303
#        158701
#        174932
#        206593
#        219712
#
# Disc length: 3260 seconds
#
# Revision: 0
# Processed by: cddbd v1.5.2PL0 Copyright (c) Steve Scherf et al.
# Submitted via: ExactAudioCopy v1.0b4
#
DISCID=900cba0a
DTITLE=Dave Riley and Junior Binzugna Band - Fired Up!
DYEAR=2017
DGENRE=Blues
TTITLE0=I'd Rather Drink Muddy Water
TTITLE1=Jelly Roll King
TTITLE2=Living On Borrowed Time
TTITLE3=Boogie Rock Medley
TTITLE4=Bring On Home To Me
TTITLE5=Let's Straighten It Out
TTITLE6=Jelly Roll King (Jr Version Duo)
TTITLE7=Howlin' Wolf
TTITLE8=Trying To Live My Life Without You
TTITLE9=Why I Cry Sometimes
EXTD=
EXTT0=
EXTT1=
EXTT2=
EXTT3=
EXTT4=
EXTT5=
EXTT6=
EXTT7=
EXTT8=
EXTT9=
PLAYORDER=
